<mxfile host="app.diagrams.net" modified="2020-10-11T23:23:54.946Z" agent="5.0 (Windows NT 10.0; Win64; x64) AppleWebKit/537.36 (KHTML, like Gecko) Chrome/85.0.4183.121 Safari/537.36" etag="cCxOAYaysm2BMNNbSnND" version="13.7.9" type="github" pages="2">
  <diagram id="H3BcMZFsaT0hHw7gbqg5" name="Page-1">
    <mxGraphModel dx="1038" dy="548" grid="1" gridSize="10" guides="1" tooltips="1" connect="1" arrows="1" fold="1" page="1" pageScale="1" pageWidth="827" pageHeight="1169" math="0" shadow="0">
      <root>
        <mxCell id="0" />
        <mxCell id="1" parent="0" />
        <mxCell id="8VS0haHg0OOm0Tlx5p61-1" value="Vaga" style="rounded=0;whiteSpace=wrap;html=1;" parent="1" vertex="1">
          <mxGeometry x="592.5" y="597.5" width="120" height="60" as="geometry" />
        </mxCell>
        <mxCell id="8VS0haHg0OOm0Tlx5p61-2" value="Cliente" style="rounded=0;whiteSpace=wrap;html=1;" parent="1" vertex="1">
          <mxGeometry x="40" y="377.5" width="120" height="60" as="geometry" />
        </mxCell>
        <mxCell id="8VS0haHg0OOm0Tlx5p61-3" value="Manobrista" style="rounded=0;whiteSpace=wrap;html=1;" parent="1" vertex="1">
          <mxGeometry x="597.5" y="382.5" width="120" height="60" as="geometry" />
        </mxCell>
        <mxCell id="8VS0haHg0OOm0Tlx5p61-4" value="Comprovante" style="rounded=0;whiteSpace=wrap;html=1;" parent="1" vertex="1">
          <mxGeometry x="595" y="192.5" width="120" height="60" as="geometry" />
        </mxCell>
        <mxCell id="8VS0haHg0OOm0Tlx5p61-5" value="ID" style="ellipse;whiteSpace=wrap;html=1;" parent="1" vertex="1">
          <mxGeometry x="580" y="712.5" width="40" height="30" as="geometry" />
        </mxCell>
        <mxCell id="8VS0haHg0OOm0Tlx5p61-6" value="Status" style="ellipse;whiteSpace=wrap;html=1;" parent="1" vertex="1">
          <mxGeometry x="662.5" y="752.5" width="60" height="30" as="geometry" />
        </mxCell>
        <mxCell id="8VS0haHg0OOm0Tlx5p61-7" value="Livre" style="ellipse;whiteSpace=wrap;html=1;" parent="1" vertex="1">
          <mxGeometry x="630" y="712.5" width="50" height="30" as="geometry" />
        </mxCell>
        <mxCell id="8VS0haHg0OOm0Tlx5p61-8" value="Ocupada" style="ellipse;whiteSpace=wrap;html=1;" parent="1" vertex="1">
          <mxGeometry x="707.5" y="712.5" width="50" height="30" as="geometry" />
        </mxCell>
        <mxCell id="8VS0haHg0OOm0Tlx5p61-9" value="" style="endArrow=none;html=1;entryX=0;entryY=0;entryDx=0;entryDy=0;exitX=0.5;exitY=1;exitDx=0;exitDy=0;" parent="1" source="8VS0haHg0OOm0Tlx5p61-7" target="8VS0haHg0OOm0Tlx5p61-6" edge="1">
          <mxGeometry width="50" height="50" relative="1" as="geometry">
            <mxPoint x="652.5" y="832.5" as="sourcePoint" />
            <mxPoint x="692.5" y="792.5" as="targetPoint" />
          </mxGeometry>
        </mxCell>
        <mxCell id="8VS0haHg0OOm0Tlx5p61-10" value="" style="endArrow=none;html=1;exitX=0.5;exitY=1;exitDx=0;exitDy=0;entryX=1;entryY=0;entryDx=0;entryDy=0;" parent="1" source="8VS0haHg0OOm0Tlx5p61-8" target="8VS0haHg0OOm0Tlx5p61-6" edge="1">
          <mxGeometry width="50" height="50" relative="1" as="geometry">
            <mxPoint x="732.5" y="832.5" as="sourcePoint" />
            <mxPoint x="706.5" y="783.5" as="targetPoint" />
          </mxGeometry>
        </mxCell>
        <mxCell id="8VS0haHg0OOm0Tlx5p61-11" value="Estaciona" style="rhombus;whiteSpace=wrap;html=1;" parent="1" vertex="1">
          <mxGeometry x="677.5" y="502.5" width="110" height="60" as="geometry" />
        </mxCell>
        <mxCell id="8VS0haHg0OOm0Tlx5p61-12" value="Recebe" style="rhombus;whiteSpace=wrap;html=1;" parent="1" vertex="1">
          <mxGeometry x="527.5" y="502.5" width="115" height="60" as="geometry" />
        </mxCell>
        <mxCell id="8VS0haHg0OOm0Tlx5p61-13" value="Cliente&lt;br&gt;Mensalista" style="rounded=0;whiteSpace=wrap;html=1;" parent="1" vertex="1">
          <mxGeometry x="105" y="522.5" width="80" height="40" as="geometry" />
        </mxCell>
        <mxCell id="8VS0haHg0OOm0Tlx5p61-14" value="Placa do Carro" style="ellipse;whiteSpace=wrap;html=1;" parent="1" vertex="1">
          <mxGeometry x="592.5" y="110" width="60" height="35" as="geometry" />
        </mxCell>
        <mxCell id="8VS0haHg0OOm0Tlx5p61-15" value="Marca" style="ellipse;whiteSpace=wrap;html=1;" parent="1" vertex="1">
          <mxGeometry x="667.5" y="112.5" width="50" height="30" as="geometry" />
        </mxCell>
        <mxCell id="8VS0haHg0OOm0Tlx5p61-16" value="Cor" style="ellipse;whiteSpace=wrap;html=1;" parent="1" vertex="1">
          <mxGeometry x="520" y="112.5" width="50" height="30" as="geometry" />
        </mxCell>
        <mxCell id="8VS0haHg0OOm0Tlx5p61-17" value="Hora de chegada" style="ellipse;whiteSpace=wrap;html=1;" parent="1" vertex="1">
          <mxGeometry x="470" y="152.5" width="70" height="40" as="geometry" />
        </mxCell>
        <mxCell id="8VS0haHg0OOm0Tlx5p61-18" value="# vaga" style="ellipse;whiteSpace=wrap;html=1;" parent="1" vertex="1">
          <mxGeometry x="730" y="142.5" width="60" height="35" as="geometry" />
        </mxCell>
        <mxCell id="8VS0haHg0OOm0Tlx5p61-19" value="" style="endArrow=none;html=1;exitX=1;exitY=1;exitDx=0;exitDy=0;entryX=0;entryY=0.5;entryDx=0;entryDy=0;" parent="1" source="8VS0haHg0OOm0Tlx5p61-17" target="8VS0haHg0OOm0Tlx5p61-4" edge="1">
          <mxGeometry width="50" height="50" relative="1" as="geometry">
            <mxPoint x="545" y="312.5" as="sourcePoint" />
            <mxPoint x="595" y="262.5" as="targetPoint" />
          </mxGeometry>
        </mxCell>
        <mxCell id="8VS0haHg0OOm0Tlx5p61-20" value="" style="endArrow=none;html=1;exitX=0.5;exitY=1;exitDx=0;exitDy=0;entryX=0.25;entryY=0;entryDx=0;entryDy=0;" parent="1" source="8VS0haHg0OOm0Tlx5p61-14" target="8VS0haHg0OOm0Tlx5p61-4" edge="1">
          <mxGeometry width="50" height="50" relative="1" as="geometry">
            <mxPoint x="655" y="142.5" as="sourcePoint" />
            <mxPoint x="655" y="252.5" as="targetPoint" />
          </mxGeometry>
        </mxCell>
        <mxCell id="8VS0haHg0OOm0Tlx5p61-21" value="" style="endArrow=none;html=1;exitX=0.5;exitY=1;exitDx=0;exitDy=0;entryX=0;entryY=0;entryDx=0;entryDy=0;" parent="1" source="8VS0haHg0OOm0Tlx5p61-16" target="8VS0haHg0OOm0Tlx5p61-4" edge="1">
          <mxGeometry width="50" height="50" relative="1" as="geometry">
            <mxPoint x="675" y="312.5" as="sourcePoint" />
            <mxPoint x="655" y="192.5" as="targetPoint" />
          </mxGeometry>
        </mxCell>
        <mxCell id="8VS0haHg0OOm0Tlx5p61-22" value="" style="endArrow=none;html=1;exitX=0.5;exitY=1;exitDx=0;exitDy=0;entryX=0.5;entryY=0;entryDx=0;entryDy=0;" parent="1" source="8VS0haHg0OOm0Tlx5p61-15" target="8VS0haHg0OOm0Tlx5p61-4" edge="1">
          <mxGeometry width="50" height="50" relative="1" as="geometry">
            <mxPoint x="725" y="277.5" as="sourcePoint" />
            <mxPoint x="775" y="227.5" as="targetPoint" />
          </mxGeometry>
        </mxCell>
        <mxCell id="8VS0haHg0OOm0Tlx5p61-23" value="" style="endArrow=none;html=1;entryX=0.75;entryY=0;entryDx=0;entryDy=0;exitX=0;exitY=1;exitDx=0;exitDy=0;" parent="1" source="8VS0haHg0OOm0Tlx5p61-18" target="8VS0haHg0OOm0Tlx5p61-4" edge="1">
          <mxGeometry width="50" height="50" relative="1" as="geometry">
            <mxPoint x="773" y="82.5" as="sourcePoint" />
            <mxPoint x="655" y="252.5" as="targetPoint" />
          </mxGeometry>
        </mxCell>
        <mxCell id="8VS0haHg0OOm0Tlx5p61-24" value="Cliente&lt;br&gt;Avulso" style="rounded=0;whiteSpace=wrap;html=1;" parent="1" vertex="1">
          <mxGeometry x="20" y="522.5" width="80" height="40" as="geometry" />
        </mxCell>
        <mxCell id="8VS0haHg0OOm0Tlx5p61-25" value="" style="triangle;whiteSpace=wrap;html=1;rotation=-90;" parent="1" vertex="1">
          <mxGeometry x="90" y="462.5" width="20" height="30" as="geometry" />
        </mxCell>
        <mxCell id="8VS0haHg0OOm0Tlx5p61-26" value="" style="endArrow=none;html=1;exitX=0.5;exitY=0;exitDx=0;exitDy=0;entryX=-0.005;entryY=0.006;entryDx=0;entryDy=0;entryPerimeter=0;" parent="1" source="8VS0haHg0OOm0Tlx5p61-24" target="8VS0haHg0OOm0Tlx5p61-25" edge="1">
          <mxGeometry width="50" height="50" relative="1" as="geometry">
            <mxPoint x="20" y="492.5" as="sourcePoint" />
            <mxPoint x="70" y="486.5" as="targetPoint" />
          </mxGeometry>
        </mxCell>
        <mxCell id="8VS0haHg0OOm0Tlx5p61-27" value="" style="endArrow=none;html=1;exitX=0.5;exitY=0;exitDx=0;exitDy=0;entryX=-0.005;entryY=1.006;entryDx=0;entryDy=0;entryPerimeter=0;" parent="1" source="8VS0haHg0OOm0Tlx5p61-13" target="8VS0haHg0OOm0Tlx5p61-25" edge="1">
          <mxGeometry width="50" height="50" relative="1" as="geometry">
            <mxPoint x="130" y="512.5" as="sourcePoint" />
            <mxPoint x="180" y="462.5" as="targetPoint" />
          </mxGeometry>
        </mxCell>
        <mxCell id="8VS0haHg0OOm0Tlx5p61-28" value="" style="endArrow=none;html=1;exitX=1;exitY=0.5;exitDx=0;exitDy=0;entryX=0.5;entryY=1;entryDx=0;entryDy=0;" parent="1" source="8VS0haHg0OOm0Tlx5p61-25" target="8VS0haHg0OOm0Tlx5p61-2" edge="1">
          <mxGeometry width="50" height="50" relative="1" as="geometry">
            <mxPoint x="100" y="472.5" as="sourcePoint" />
            <mxPoint x="150" y="422.5" as="targetPoint" />
          </mxGeometry>
        </mxCell>
        <mxCell id="8VS0haHg0OOm0Tlx5p61-29" value="T" style="text;html=1;align=center;verticalAlign=middle;resizable=0;points=[];autosize=1;" parent="1" vertex="1">
          <mxGeometry x="110" y="452.5" width="20" height="20" as="geometry" />
        </mxCell>
        <mxCell id="8VS0haHg0OOm0Tlx5p61-30" value="Registra" style="rhombus;whiteSpace=wrap;html=1;" parent="1" vertex="1">
          <mxGeometry x="605" y="272.5" width="110" height="60" as="geometry" />
        </mxCell>
        <mxCell id="8VS0haHg0OOm0Tlx5p61-31" value="Carro" style="rounded=0;whiteSpace=wrap;html=1;" parent="1" vertex="1">
          <mxGeometry x="330" y="382.5" width="120" height="60" as="geometry" />
        </mxCell>
        <mxCell id="8VS0haHg0OOm0Tlx5p61-32" value="Deixa" style="rhombus;whiteSpace=wrap;html=1;" parent="1" vertex="1">
          <mxGeometry x="330" y="272.5" width="120" height="60" as="geometry" />
        </mxCell>
        <mxCell id="8VS0haHg0OOm0Tlx5p61-33" value="" style="endArrow=none;html=1;exitX=0.25;exitY=1;exitDx=0;exitDy=0;entryX=0.5;entryY=0;entryDx=0;entryDy=0;" parent="1" source="8VS0haHg0OOm0Tlx5p61-1" target="8VS0haHg0OOm0Tlx5p61-5" edge="1">
          <mxGeometry width="50" height="50" relative="1" as="geometry">
            <mxPoint x="882.5" y="707.5" as="sourcePoint" />
            <mxPoint x="932.5" y="657.5" as="targetPoint" />
          </mxGeometry>
        </mxCell>
        <mxCell id="8VS0haHg0OOm0Tlx5p61-34" value="" style="endArrow=none;html=1;exitX=0.75;exitY=1;exitDx=0;exitDy=0;entryX=0.5;entryY=0;entryDx=0;entryDy=0;" parent="1" source="8VS0haHg0OOm0Tlx5p61-1" target="8VS0haHg0OOm0Tlx5p61-6" edge="1">
          <mxGeometry width="50" height="50" relative="1" as="geometry">
            <mxPoint x="707.5" y="587.5" as="sourcePoint" />
            <mxPoint x="757.5" y="537.5" as="targetPoint" />
          </mxGeometry>
        </mxCell>
        <mxCell id="8VS0haHg0OOm0Tlx5p61-35" value="" style="endArrow=none;html=1;entryX=0;entryY=1;entryDx=0;entryDy=0;exitX=0.5;exitY=0;exitDx=0;exitDy=0;" parent="1" source="8VS0haHg0OOm0Tlx5p61-1" target="8VS0haHg0OOm0Tlx5p61-11" edge="1">
          <mxGeometry width="50" height="50" relative="1" as="geometry">
            <mxPoint x="657.5" y="587.5" as="sourcePoint" />
            <mxPoint x="707.5" y="537.5" as="targetPoint" />
          </mxGeometry>
        </mxCell>
        <mxCell id="8VS0haHg0OOm0Tlx5p61-36" value="" style="endArrow=none;html=1;exitX=0.5;exitY=0;exitDx=0;exitDy=0;entryX=1;entryY=1;entryDx=0;entryDy=0;" parent="1" source="8VS0haHg0OOm0Tlx5p61-1" target="8VS0haHg0OOm0Tlx5p61-12" edge="1">
          <mxGeometry width="50" height="50" relative="1" as="geometry">
            <mxPoint x="612.5" y="572.5" as="sourcePoint" />
            <mxPoint x="617" y="554.56" as="targetPoint" />
          </mxGeometry>
        </mxCell>
        <mxCell id="8VS0haHg0OOm0Tlx5p61-37" value="" style="endArrow=none;html=1;entryX=0.5;entryY=1;entryDx=0;entryDy=0;exitX=1;exitY=0;exitDx=0;exitDy=0;" parent="1" source="8VS0haHg0OOm0Tlx5p61-12" target="8VS0haHg0OOm0Tlx5p61-3" edge="1">
          <mxGeometry width="50" height="50" relative="1" as="geometry">
            <mxPoint x="620" y="482.5" as="sourcePoint" />
            <mxPoint x="670" y="452.5" as="targetPoint" />
          </mxGeometry>
        </mxCell>
        <mxCell id="8VS0haHg0OOm0Tlx5p61-38" value="" style="endArrow=none;html=1;exitX=0;exitY=0;exitDx=0;exitDy=0;entryX=0.5;entryY=1;entryDx=0;entryDy=0;" parent="1" source="8VS0haHg0OOm0Tlx5p61-11" target="8VS0haHg0OOm0Tlx5p61-3" edge="1">
          <mxGeometry width="50" height="50" relative="1" as="geometry">
            <mxPoint x="737.5" y="482.5" as="sourcePoint" />
            <mxPoint x="787.5" y="432.5" as="targetPoint" />
          </mxGeometry>
        </mxCell>
        <mxCell id="8VS0haHg0OOm0Tlx5p61-39" value="" style="endArrow=none;html=1;exitX=0.5;exitY=0;exitDx=0;exitDy=0;entryX=0.5;entryY=1;entryDx=0;entryDy=0;" parent="1" source="8VS0haHg0OOm0Tlx5p61-3" target="8VS0haHg0OOm0Tlx5p61-30" edge="1">
          <mxGeometry width="50" height="50" relative="1" as="geometry">
            <mxPoint x="722.5" y="362.5" as="sourcePoint" />
            <mxPoint x="660" y="342.5" as="targetPoint" />
          </mxGeometry>
        </mxCell>
        <mxCell id="8VS0haHg0OOm0Tlx5p61-40" value="" style="endArrow=none;html=1;entryX=0.5;entryY=1;entryDx=0;entryDy=0;exitX=0.5;exitY=0;exitDx=0;exitDy=0;" parent="1" source="8VS0haHg0OOm0Tlx5p61-30" target="8VS0haHg0OOm0Tlx5p61-4" edge="1">
          <mxGeometry width="50" height="50" relative="1" as="geometry">
            <mxPoint x="680" y="272.5" as="sourcePoint" />
            <mxPoint x="530" y="202.5" as="targetPoint" />
          </mxGeometry>
        </mxCell>
        <mxCell id="8VS0haHg0OOm0Tlx5p61-41" value="Recebe" style="rhombus;whiteSpace=wrap;html=1;" parent="1" vertex="1">
          <mxGeometry x="330" y="492.5" width="120" height="60" as="geometry" />
        </mxCell>
        <mxCell id="8VS0haHg0OOm0Tlx5p61-42" value="" style="endArrow=none;html=1;exitX=0;exitY=0.5;exitDx=0;exitDy=0;entryX=1;entryY=1;entryDx=0;entryDy=0;" parent="1" source="8VS0haHg0OOm0Tlx5p61-3" target="8VS0haHg0OOm0Tlx5p61-32" edge="1">
          <mxGeometry width="50" height="50" relative="1" as="geometry">
            <mxPoint x="490" y="352.5" as="sourcePoint" />
            <mxPoint x="540" y="302.5" as="targetPoint" />
          </mxGeometry>
        </mxCell>
        <mxCell id="8VS0haHg0OOm0Tlx5p61-43" value="" style="endArrow=none;html=1;entryX=0;entryY=0.5;entryDx=0;entryDy=0;exitX=1;exitY=0;exitDx=0;exitDy=0;" parent="1" source="8VS0haHg0OOm0Tlx5p61-41" target="8VS0haHg0OOm0Tlx5p61-3" edge="1">
          <mxGeometry width="50" height="50" relative="1" as="geometry">
            <mxPoint x="380" y="642.5" as="sourcePoint" />
            <mxPoint x="430" y="592.5" as="targetPoint" />
          </mxGeometry>
        </mxCell>
        <mxCell id="8VS0haHg0OOm0Tlx5p61-44" value="" style="endArrow=none;html=1;exitX=1;exitY=0.5;exitDx=0;exitDy=0;entryX=0;entryY=1;entryDx=0;entryDy=0;" parent="1" source="8VS0haHg0OOm0Tlx5p61-2" target="8VS0haHg0OOm0Tlx5p61-32" edge="1">
          <mxGeometry width="50" height="50" relative="1" as="geometry">
            <mxPoint x="185" y="412.5" as="sourcePoint" />
            <mxPoint x="235" y="362.5" as="targetPoint" />
          </mxGeometry>
        </mxCell>
        <mxCell id="8VS0haHg0OOm0Tlx5p61-45" value="" style="endArrow=none;html=1;exitX=1;exitY=0.5;exitDx=0;exitDy=0;entryX=0;entryY=0;entryDx=0;entryDy=0;" parent="1" source="8VS0haHg0OOm0Tlx5p61-2" target="8VS0haHg0OOm0Tlx5p61-41" edge="1">
          <mxGeometry width="50" height="50" relative="1" as="geometry">
            <mxPoint x="380" y="642.5" as="sourcePoint" />
            <mxPoint x="430" y="592.5" as="targetPoint" />
          </mxGeometry>
        </mxCell>
        <mxCell id="8VS0haHg0OOm0Tlx5p61-46" value="" style="endArrow=none;html=1;exitX=0.5;exitY=1;exitDx=0;exitDy=0;entryX=0.5;entryY=0;entryDx=0;entryDy=0;" parent="1" source="8VS0haHg0OOm0Tlx5p61-32" target="8VS0haHg0OOm0Tlx5p61-31" edge="1">
          <mxGeometry width="50" height="50" relative="1" as="geometry">
            <mxPoint x="380" y="642.5" as="sourcePoint" />
            <mxPoint x="430" y="592.5" as="targetPoint" />
          </mxGeometry>
        </mxCell>
        <mxCell id="8VS0haHg0OOm0Tlx5p61-47" value="" style="endArrow=none;html=1;exitX=0.5;exitY=0;exitDx=0;exitDy=0;entryX=0.5;entryY=1;entryDx=0;entryDy=0;" parent="1" source="8VS0haHg0OOm0Tlx5p61-41" target="8VS0haHg0OOm0Tlx5p61-31" edge="1">
          <mxGeometry width="50" height="50" relative="1" as="geometry">
            <mxPoint x="380" y="642.5" as="sourcePoint" />
            <mxPoint x="430" y="592.5" as="targetPoint" />
          </mxGeometry>
        </mxCell>
        <mxCell id="8VS0haHg0OOm0Tlx5p61-48" value="Hora&lt;br&gt;saída" style="ellipse;whiteSpace=wrap;html=1;" parent="1" vertex="1">
          <mxGeometry x="460" y="212.5" width="80" height="40" as="geometry" />
        </mxCell>
        <mxCell id="8VS0haHg0OOm0Tlx5p61-49" value="" style="endArrow=none;html=1;entryX=0;entryY=0.75;entryDx=0;entryDy=0;exitX=1;exitY=0.5;exitDx=0;exitDy=0;" parent="1" source="8VS0haHg0OOm0Tlx5p61-48" target="8VS0haHg0OOm0Tlx5p61-4" edge="1">
          <mxGeometry width="50" height="50" relative="1" as="geometry">
            <mxPoint x="380" y="332.5" as="sourcePoint" />
            <mxPoint x="430" y="282.5" as="targetPoint" />
          </mxGeometry>
        </mxCell>
        <mxCell id="8VS0haHg0OOm0Tlx5p61-50" value="Nome" style="ellipse;whiteSpace=wrap;html=1;" parent="1" vertex="1">
          <mxGeometry x="757.5" y="192.5" width="50" height="30" as="geometry" />
        </mxCell>
        <mxCell id="8VS0haHg0OOm0Tlx5p61-51" value="" style="endArrow=none;html=1;entryX=0;entryY=0.5;entryDx=0;entryDy=0;exitX=1;exitY=0.5;exitDx=0;exitDy=0;" parent="1" source="8VS0haHg0OOm0Tlx5p61-4" target="8VS0haHg0OOm0Tlx5p61-50" edge="1">
          <mxGeometry width="50" height="50" relative="1" as="geometry">
            <mxPoint x="480" y="452.5" as="sourcePoint" />
            <mxPoint x="530" y="402.5" as="targetPoint" />
          </mxGeometry>
        </mxCell>
        <mxCell id="8VS0haHg0OOm0Tlx5p61-52" value="Valor" style="ellipse;whiteSpace=wrap;html=1;" parent="1" vertex="1">
          <mxGeometry x="757.5" y="242.5" width="50" height="30" as="geometry" />
        </mxCell>
        <mxCell id="8VS0haHg0OOm0Tlx5p61-53" value="" style="endArrow=none;html=1;entryX=0;entryY=0.5;entryDx=0;entryDy=0;exitX=1;exitY=0.75;exitDx=0;exitDy=0;" parent="1" source="8VS0haHg0OOm0Tlx5p61-4" target="8VS0haHg0OOm0Tlx5p61-52" edge="1">
          <mxGeometry width="50" height="50" relative="1" as="geometry">
            <mxPoint x="480" y="452.5" as="sourcePoint" />
            <mxPoint x="530" y="402.5" as="targetPoint" />
          </mxGeometry>
        </mxCell>
      </root>
    </mxGraphModel>
  </diagram>
  <diagram id="tfNFRp_g3Yg3Bvj6KFTT" name="Page-2">
    <mxGraphModel dx="1221" dy="645" grid="1" gridSize="10" guides="1" tooltips="1" connect="1" arrows="1" fold="1" page="1" pageScale="1" pageWidth="827" pageHeight="1169" math="0" shadow="0">
      <root>
        <mxCell id="mz15I2nbmNn2ASxsVBPX-0" />
        <mxCell id="mz15I2nbmNn2ASxsVBPX-1" parent="mz15I2nbmNn2ASxsVBPX-0" />
        <mxCell id="mQuxqRwpFB3yFmqCJQ7G-0" value="Hóspede" style="rounded=0;whiteSpace=wrap;html=1;" vertex="1" parent="mz15I2nbmNn2ASxsVBPX-1">
          <mxGeometry x="120" y="310" width="120" height="60" as="geometry" />
        </mxCell>
        <mxCell id="mQuxqRwpFB3yFmqCJQ7G-1" value="Dados" style="rounded=0;whiteSpace=wrap;html=1;" vertex="1" parent="mz15I2nbmNn2ASxsVBPX-1">
          <mxGeometry x="120" y="120" width="120" height="60" as="geometry" />
        </mxCell>
        <mxCell id="mQuxqRwpFB3yFmqCJQ7G-2" value="Nome" style="ellipse;whiteSpace=wrap;html=1;" vertex="1" parent="mz15I2nbmNn2ASxsVBPX-1">
          <mxGeometry x="250" y="85" width="50" height="20" as="geometry" />
        </mxCell>
        <mxCell id="mQuxqRwpFB3yFmqCJQ7G-3" value="CPF" style="ellipse;whiteSpace=wrap;html=1;" vertex="1" parent="mz15I2nbmNn2ASxsVBPX-1">
          <mxGeometry x="210" y="55" width="40" height="20" as="geometry" />
        </mxCell>
        <mxCell id="mQuxqRwpFB3yFmqCJQ7G-4" value="Telefone" style="ellipse;whiteSpace=wrap;html=1;" vertex="1" parent="mz15I2nbmNn2ASxsVBPX-1">
          <mxGeometry x="60" y="75" width="60" height="30" as="geometry" />
        </mxCell>
        <mxCell id="mQuxqRwpFB3yFmqCJQ7G-5" value="Data de&lt;br&gt;Nascimento" style="ellipse;whiteSpace=wrap;html=1;" vertex="1" parent="mz15I2nbmNn2ASxsVBPX-1">
          <mxGeometry x="120" y="40" width="80" height="40" as="geometry" />
        </mxCell>
        <mxCell id="mQuxqRwpFB3yFmqCJQ7G-7" value="" style="endArrow=none;html=1;entryX=0;entryY=1;entryDx=0;entryDy=0;exitX=1;exitY=0;exitDx=0;exitDy=0;" edge="1" parent="mz15I2nbmNn2ASxsVBPX-1" source="mQuxqRwpFB3yFmqCJQ7G-1" target="mQuxqRwpFB3yFmqCJQ7G-2">
          <mxGeometry width="50" height="50" relative="1" as="geometry">
            <mxPoint x="170" y="130" as="sourcePoint" />
            <mxPoint x="220" y="80" as="targetPoint" />
          </mxGeometry>
        </mxCell>
        <mxCell id="mQuxqRwpFB3yFmqCJQ7G-8" value="" style="endArrow=none;html=1;entryX=0.5;entryY=1;entryDx=0;entryDy=0;exitX=0.75;exitY=0;exitDx=0;exitDy=0;" edge="1" parent="mz15I2nbmNn2ASxsVBPX-1" source="mQuxqRwpFB3yFmqCJQ7G-1" target="mQuxqRwpFB3yFmqCJQ7G-3">
          <mxGeometry width="50" height="50" relative="1" as="geometry">
            <mxPoint x="160" y="170" as="sourcePoint" />
            <mxPoint x="210" y="120" as="targetPoint" />
          </mxGeometry>
        </mxCell>
        <mxCell id="mQuxqRwpFB3yFmqCJQ7G-9" value="" style="endArrow=none;html=1;entryX=0.5;entryY=1;entryDx=0;entryDy=0;exitX=0.5;exitY=0;exitDx=0;exitDy=0;" edge="1" parent="mz15I2nbmNn2ASxsVBPX-1" source="mQuxqRwpFB3yFmqCJQ7G-1" target="mQuxqRwpFB3yFmqCJQ7G-5">
          <mxGeometry width="50" height="50" relative="1" as="geometry">
            <mxPoint x="160" y="170" as="sourcePoint" />
            <mxPoint x="210" y="120" as="targetPoint" />
          </mxGeometry>
        </mxCell>
        <mxCell id="mQuxqRwpFB3yFmqCJQ7G-10" value="" style="endArrow=none;html=1;exitX=1;exitY=1;exitDx=0;exitDy=0;entryX=0.25;entryY=0;entryDx=0;entryDy=0;" edge="1" parent="mz15I2nbmNn2ASxsVBPX-1" source="mQuxqRwpFB3yFmqCJQ7G-4" target="mQuxqRwpFB3yFmqCJQ7G-1">
          <mxGeometry width="50" height="50" relative="1" as="geometry">
            <mxPoint x="160" y="170" as="sourcePoint" />
            <mxPoint x="210" y="120" as="targetPoint" />
          </mxGeometry>
        </mxCell>
        <mxCell id="mQuxqRwpFB3yFmqCJQ7G-14" value="Serviços" style="rounded=0;whiteSpace=wrap;html=1;" vertex="1" parent="mz15I2nbmNn2ASxsVBPX-1">
          <mxGeometry x="400" y="460" width="120" height="60" as="geometry" />
        </mxCell>
        <mxCell id="mQuxqRwpFB3yFmqCJQ7G-21" value="Realiza" style="rhombus;whiteSpace=wrap;html=1;" vertex="1" parent="mz15I2nbmNn2ASxsVBPX-1">
          <mxGeometry x="130" y="420" width="100" height="60" as="geometry" />
        </mxCell>
        <mxCell id="mQuxqRwpFB3yFmqCJQ7G-22" value="Informa" style="rhombus;whiteSpace=wrap;html=1;" vertex="1" parent="mz15I2nbmNn2ASxsVBPX-1">
          <mxGeometry x="130" y="220" width="100" height="60" as="geometry" />
        </mxCell>
        <mxCell id="mQuxqRwpFB3yFmqCJQ7G-26" value="Check-in" style="rounded=0;whiteSpace=wrap;html=1;" vertex="1" parent="mz15I2nbmNn2ASxsVBPX-1">
          <mxGeometry x="50" y="500" width="120" height="60" as="geometry" />
        </mxCell>
        <mxCell id="mQuxqRwpFB3yFmqCJQ7G-28" value="Data de entrada" style="ellipse;whiteSpace=wrap;html=1;" vertex="1" parent="mz15I2nbmNn2ASxsVBPX-1">
          <mxGeometry x="70" y="570" width="80" height="40" as="geometry" />
        </mxCell>
        <mxCell id="mQuxqRwpFB3yFmqCJQ7G-30" value="" style="endArrow=none;html=1;exitX=0.5;exitY=0;exitDx=0;exitDy=0;entryX=0.5;entryY=1;entryDx=0;entryDy=0;" edge="1" parent="mz15I2nbmNn2ASxsVBPX-1" source="mQuxqRwpFB3yFmqCJQ7G-22" target="mQuxqRwpFB3yFmqCJQ7G-1">
          <mxGeometry width="50" height="50" relative="1" as="geometry">
            <mxPoint x="450" y="260" as="sourcePoint" />
            <mxPoint x="500" y="210" as="targetPoint" />
          </mxGeometry>
        </mxCell>
        <mxCell id="mQuxqRwpFB3yFmqCJQ7G-32" value="" style="endArrow=none;html=1;exitX=0.5;exitY=0;exitDx=0;exitDy=0;entryX=0.5;entryY=1;entryDx=0;entryDy=0;" edge="1" parent="mz15I2nbmNn2ASxsVBPX-1" source="mQuxqRwpFB3yFmqCJQ7G-0" target="mQuxqRwpFB3yFmqCJQ7G-22">
          <mxGeometry width="50" height="50" relative="1" as="geometry">
            <mxPoint x="300" y="230" as="sourcePoint" />
            <mxPoint x="350" y="180" as="targetPoint" />
          </mxGeometry>
        </mxCell>
        <mxCell id="mQuxqRwpFB3yFmqCJQ7G-33" value="" style="endArrow=none;html=1;exitX=0.5;exitY=0;exitDx=0;exitDy=0;entryX=0.5;entryY=1;entryDx=0;entryDy=0;" edge="1" parent="mz15I2nbmNn2ASxsVBPX-1" source="mQuxqRwpFB3yFmqCJQ7G-21" target="mQuxqRwpFB3yFmqCJQ7G-0">
          <mxGeometry width="50" height="50" relative="1" as="geometry">
            <mxPoint x="300" y="350" as="sourcePoint" />
            <mxPoint x="350" y="300" as="targetPoint" />
          </mxGeometry>
        </mxCell>
        <mxCell id="mQuxqRwpFB3yFmqCJQ7G-34" value="" style="endArrow=none;html=1;entryX=0;entryY=1;entryDx=0;entryDy=0;exitX=0.5;exitY=0;exitDx=0;exitDy=0;" edge="1" parent="mz15I2nbmNn2ASxsVBPX-1" source="mQuxqRwpFB3yFmqCJQ7G-26" target="mQuxqRwpFB3yFmqCJQ7G-21">
          <mxGeometry width="50" height="50" relative="1" as="geometry">
            <mxPoint x="300" y="350" as="sourcePoint" />
            <mxPoint x="350" y="300" as="targetPoint" />
          </mxGeometry>
        </mxCell>
        <mxCell id="mQuxqRwpFB3yFmqCJQ7G-36" value="" style="endArrow=none;html=1;exitX=0.5;exitY=0;exitDx=0;exitDy=0;entryX=0.5;entryY=1;entryDx=0;entryDy=0;" edge="1" parent="mz15I2nbmNn2ASxsVBPX-1" source="mQuxqRwpFB3yFmqCJQ7G-28" target="mQuxqRwpFB3yFmqCJQ7G-26">
          <mxGeometry width="50" height="50" relative="1" as="geometry">
            <mxPoint x="300" y="350" as="sourcePoint" />
            <mxPoint x="350" y="300" as="targetPoint" />
          </mxGeometry>
        </mxCell>
        <mxCell id="mQuxqRwpFB3yFmqCJQ7G-37" value="Solicita" style="rhombus;whiteSpace=wrap;html=1;" vertex="1" parent="mz15I2nbmNn2ASxsVBPX-1">
          <mxGeometry x="275" y="390" width="90" height="50" as="geometry" />
        </mxCell>
        <mxCell id="mQuxqRwpFB3yFmqCJQ7G-38" value="" style="endArrow=none;html=1;exitX=0;exitY=0;exitDx=0;exitDy=0;entryX=1;entryY=1;entryDx=0;entryDy=0;" edge="1" parent="mz15I2nbmNn2ASxsVBPX-1" source="mQuxqRwpFB3yFmqCJQ7G-37" target="mQuxqRwpFB3yFmqCJQ7G-0">
          <mxGeometry width="50" height="50" relative="1" as="geometry">
            <mxPoint x="300" y="350" as="sourcePoint" />
            <mxPoint x="350" y="300" as="targetPoint" />
          </mxGeometry>
        </mxCell>
        <mxCell id="mQuxqRwpFB3yFmqCJQ7G-39" value="" style="endArrow=none;html=1;exitX=1;exitY=1;exitDx=0;exitDy=0;entryX=0;entryY=0;entryDx=0;entryDy=0;" edge="1" parent="mz15I2nbmNn2ASxsVBPX-1" source="mQuxqRwpFB3yFmqCJQ7G-37" target="mQuxqRwpFB3yFmqCJQ7G-14">
          <mxGeometry width="50" height="50" relative="1" as="geometry">
            <mxPoint x="300" y="350" as="sourcePoint" />
            <mxPoint x="350" y="300" as="targetPoint" />
          </mxGeometry>
        </mxCell>
        <mxCell id="mQuxqRwpFB3yFmqCJQ7G-40" value="Cozinha" style="ellipse;whiteSpace=wrap;html=1;" vertex="1" parent="mz15I2nbmNn2ASxsVBPX-1">
          <mxGeometry x="330" y="530" width="60" height="30" as="geometry" />
        </mxCell>
        <mxCell id="mQuxqRwpFB3yFmqCJQ7G-41" value="Check-out" style="rounded=0;whiteSpace=wrap;html=1;" vertex="1" parent="mz15I2nbmNn2ASxsVBPX-1">
          <mxGeometry x="200" y="500" width="120" height="60" as="geometry" />
        </mxCell>
        <mxCell id="mQuxqRwpFB3yFmqCJQ7G-42" value="" style="endArrow=none;html=1;exitX=1;exitY=1;exitDx=0;exitDy=0;entryX=0.5;entryY=0;entryDx=0;entryDy=0;" edge="1" parent="mz15I2nbmNn2ASxsVBPX-1" source="mQuxqRwpFB3yFmqCJQ7G-21" target="mQuxqRwpFB3yFmqCJQ7G-41">
          <mxGeometry width="50" height="50" relative="1" as="geometry">
            <mxPoint x="300" y="350" as="sourcePoint" />
            <mxPoint x="350" y="300" as="targetPoint" />
          </mxGeometry>
        </mxCell>
        <mxCell id="mQuxqRwpFB3yFmqCJQ7G-43" value="Data de&lt;br&gt;saída" style="ellipse;whiteSpace=wrap;html=1;" vertex="1" parent="mz15I2nbmNn2ASxsVBPX-1">
          <mxGeometry x="225" y="570" width="70" height="40" as="geometry" />
        </mxCell>
        <mxCell id="mQuxqRwpFB3yFmqCJQ7G-44" value="" style="endArrow=none;html=1;exitX=0.5;exitY=0;exitDx=0;exitDy=0;entryX=0.5;entryY=1;entryDx=0;entryDy=0;" edge="1" parent="mz15I2nbmNn2ASxsVBPX-1" source="mQuxqRwpFB3yFmqCJQ7G-43" target="mQuxqRwpFB3yFmqCJQ7G-41">
          <mxGeometry width="50" height="50" relative="1" as="geometry">
            <mxPoint x="300" y="340" as="sourcePoint" />
            <mxPoint x="350" y="290" as="targetPoint" />
          </mxGeometry>
        </mxCell>
        <mxCell id="mQuxqRwpFB3yFmqCJQ7G-45" value="Cabeleleiro" style="ellipse;whiteSpace=wrap;html=1;" vertex="1" parent="mz15I2nbmNn2ASxsVBPX-1">
          <mxGeometry x="425" y="545" width="70" height="40" as="geometry" />
        </mxCell>
        <mxCell id="mQuxqRwpFB3yFmqCJQ7G-46" value="Lavanderia" style="ellipse;whiteSpace=wrap;html=1;" vertex="1" parent="mz15I2nbmNn2ASxsVBPX-1">
          <mxGeometry x="500" y="575" width="70" height="40" as="geometry" />
        </mxCell>
        <mxCell id="mQuxqRwpFB3yFmqCJQ7G-47" value="Alfaiate" style="ellipse;whiteSpace=wrap;html=1;" vertex="1" parent="mz15I2nbmNn2ASxsVBPX-1">
          <mxGeometry x="350" y="575" width="60" height="30" as="geometry" />
        </mxCell>
        <mxCell id="mQuxqRwpFB3yFmqCJQ7G-49" value="Frigobar" style="ellipse;whiteSpace=wrap;html=1;" vertex="1" parent="mz15I2nbmNn2ASxsVBPX-1">
          <mxGeometry x="545" y="520" width="60" height="30" as="geometry" />
        </mxCell>
        <mxCell id="mQuxqRwpFB3yFmqCJQ7G-50" value="" style="endArrow=none;html=1;exitX=0.5;exitY=0;exitDx=0;exitDy=0;entryX=0;entryY=0.75;entryDx=0;entryDy=0;" edge="1" parent="mz15I2nbmNn2ASxsVBPX-1" source="mQuxqRwpFB3yFmqCJQ7G-40" target="mQuxqRwpFB3yFmqCJQ7G-14">
          <mxGeometry width="50" height="50" relative="1" as="geometry">
            <mxPoint x="300" y="340" as="sourcePoint" />
            <mxPoint x="350" y="290" as="targetPoint" />
          </mxGeometry>
        </mxCell>
        <mxCell id="mQuxqRwpFB3yFmqCJQ7G-51" value="" style="endArrow=none;html=1;exitX=0.5;exitY=0;exitDx=0;exitDy=0;entryX=0.25;entryY=1;entryDx=0;entryDy=0;" edge="1" parent="mz15I2nbmNn2ASxsVBPX-1" source="mQuxqRwpFB3yFmqCJQ7G-47" target="mQuxqRwpFB3yFmqCJQ7G-14">
          <mxGeometry width="50" height="50" relative="1" as="geometry">
            <mxPoint x="300" y="340" as="sourcePoint" />
            <mxPoint x="350" y="290" as="targetPoint" />
          </mxGeometry>
        </mxCell>
        <mxCell id="mQuxqRwpFB3yFmqCJQ7G-52" value="" style="endArrow=none;html=1;exitX=0.5;exitY=0;exitDx=0;exitDy=0;entryX=0.5;entryY=1;entryDx=0;entryDy=0;" edge="1" parent="mz15I2nbmNn2ASxsVBPX-1" source="mQuxqRwpFB3yFmqCJQ7G-45" target="mQuxqRwpFB3yFmqCJQ7G-14">
          <mxGeometry width="50" height="50" relative="1" as="geometry">
            <mxPoint x="300" y="340" as="sourcePoint" />
            <mxPoint x="350" y="290" as="targetPoint" />
          </mxGeometry>
        </mxCell>
        <mxCell id="mQuxqRwpFB3yFmqCJQ7G-53" value="" style="endArrow=none;html=1;exitX=0.5;exitY=0;exitDx=0;exitDy=0;entryX=0.75;entryY=1;entryDx=0;entryDy=0;" edge="1" parent="mz15I2nbmNn2ASxsVBPX-1" source="mQuxqRwpFB3yFmqCJQ7G-46" target="mQuxqRwpFB3yFmqCJQ7G-14">
          <mxGeometry width="50" height="50" relative="1" as="geometry">
            <mxPoint x="300" y="340" as="sourcePoint" />
            <mxPoint x="350" y="290" as="targetPoint" />
          </mxGeometry>
        </mxCell>
        <mxCell id="mQuxqRwpFB3yFmqCJQ7G-54" value="" style="endArrow=none;html=1;exitX=0;exitY=0;exitDx=0;exitDy=0;entryX=1;entryY=0.75;entryDx=0;entryDy=0;" edge="1" parent="mz15I2nbmNn2ASxsVBPX-1" source="mQuxqRwpFB3yFmqCJQ7G-49" target="mQuxqRwpFB3yFmqCJQ7G-14">
          <mxGeometry width="50" height="50" relative="1" as="geometry">
            <mxPoint x="300" y="340" as="sourcePoint" />
            <mxPoint x="350" y="290" as="targetPoint" />
          </mxGeometry>
        </mxCell>
        <mxCell id="mQuxqRwpFB3yFmqCJQ7G-55" value="Ocupa" style="rhombus;whiteSpace=wrap;html=1;" vertex="1" parent="mz15I2nbmNn2ASxsVBPX-1">
          <mxGeometry x="365" y="315" width="80" height="50" as="geometry" />
        </mxCell>
        <mxCell id="mQuxqRwpFB3yFmqCJQ7G-57" value="" style="endArrow=none;html=1;exitX=1;exitY=0.5;exitDx=0;exitDy=0;entryX=0;entryY=0.5;entryDx=0;entryDy=0;" edge="1" parent="mz15I2nbmNn2ASxsVBPX-1" source="mQuxqRwpFB3yFmqCJQ7G-0" target="mQuxqRwpFB3yFmqCJQ7G-55">
          <mxGeometry width="50" height="50" relative="1" as="geometry">
            <mxPoint x="300" y="340" as="sourcePoint" />
            <mxPoint x="350" y="290" as="targetPoint" />
          </mxGeometry>
        </mxCell>
        <mxCell id="mQuxqRwpFB3yFmqCJQ7G-58" value="" style="endArrow=none;html=1;exitX=1;exitY=0.5;exitDx=0;exitDy=0;" edge="1" parent="mz15I2nbmNn2ASxsVBPX-1" source="mQuxqRwpFB3yFmqCJQ7G-55">
          <mxGeometry width="50" height="50" relative="1" as="geometry">
            <mxPoint x="300" y="340" as="sourcePoint" />
            <mxPoint x="590" y="340" as="targetPoint" />
          </mxGeometry>
        </mxCell>
        <mxCell id="mQuxqRwpFB3yFmqCJQ7G-60" value="1" style="text;html=1;align=center;verticalAlign=middle;resizable=0;points=[];autosize=1;" vertex="1" parent="mz15I2nbmNn2ASxsVBPX-1">
          <mxGeometry x="240" y="315" width="20" height="20" as="geometry" />
        </mxCell>
        <mxCell id="mQuxqRwpFB3yFmqCJQ7G-61" value="N" style="text;html=1;align=center;verticalAlign=middle;resizable=0;points=[];autosize=1;" vertex="1" parent="mz15I2nbmNn2ASxsVBPX-1">
          <mxGeometry x="560" y="310" width="20" height="20" as="geometry" />
        </mxCell>
        <mxCell id="mQuxqRwpFB3yFmqCJQ7G-62" value="T" style="text;html=1;align=center;verticalAlign=middle;resizable=0;points=[];autosize=1;" vertex="1" parent="mz15I2nbmNn2ASxsVBPX-1">
          <mxGeometry x="620" y="240" width="20" height="20" as="geometry" />
        </mxCell>
        <mxCell id="mQuxqRwpFB3yFmqCJQ7G-63" value="Quarto" style="rounded=0;whiteSpace=wrap;html=1;" vertex="1" parent="mz15I2nbmNn2ASxsVBPX-1">
          <mxGeometry x="545" y="310" width="120" height="60" as="geometry" />
        </mxCell>
        <mxCell id="mQuxqRwpFB3yFmqCJQ7G-64" value="Casal" style="rounded=0;whiteSpace=wrap;html=1;direction=west;" vertex="1" parent="mz15I2nbmNn2ASxsVBPX-1">
          <mxGeometry x="545" y="90" width="120" height="60" as="geometry" />
        </mxCell>
        <mxCell id="mQuxqRwpFB3yFmqCJQ7G-65" value="Simples" style="rounded=0;whiteSpace=wrap;html=1;direction=west;" vertex="1" parent="mz15I2nbmNn2ASxsVBPX-1">
          <mxGeometry x="400" y="90" width="120" height="60" as="geometry" />
        </mxCell>
        <mxCell id="mQuxqRwpFB3yFmqCJQ7G-66" value="Especial" style="rounded=0;whiteSpace=wrap;html=1;direction=west;" vertex="1" parent="mz15I2nbmNn2ASxsVBPX-1">
          <mxGeometry x="685" y="90" width="120" height="60" as="geometry" />
        </mxCell>
        <mxCell id="mQuxqRwpFB3yFmqCJQ7G-67" value="" style="triangle;whiteSpace=wrap;html=1;rotation=-90;direction=west;" vertex="1" parent="mz15I2nbmNn2ASxsVBPX-1">
          <mxGeometry x="575" y="200" width="60" height="80" as="geometry" />
        </mxCell>
        <mxCell id="mQuxqRwpFB3yFmqCJQ7G-68" value="" style="endArrow=none;html=1;exitX=0.5;exitY=0;exitDx=0;exitDy=0;entryX=0.028;entryY=0.968;entryDx=0;entryDy=0;entryPerimeter=0;" edge="1" source="mQuxqRwpFB3yFmqCJQ7G-65" target="mQuxqRwpFB3yFmqCJQ7G-67" parent="mz15I2nbmNn2ASxsVBPX-1">
          <mxGeometry width="50" height="50" relative="1" as="geometry">
            <mxPoint x="475" y="70" as="sourcePoint" />
            <mxPoint x="525" y="20" as="targetPoint" />
          </mxGeometry>
        </mxCell>
        <mxCell id="mQuxqRwpFB3yFmqCJQ7G-69" value="" style="endArrow=none;html=1;exitX=0.5;exitY=0;exitDx=0;exitDy=0;" edge="1" source="mQuxqRwpFB3yFmqCJQ7G-64" target="mQuxqRwpFB3yFmqCJQ7G-67" parent="mz15I2nbmNn2ASxsVBPX-1">
          <mxGeometry width="50" height="50" relative="1" as="geometry">
            <mxPoint x="655" y="50" as="sourcePoint" />
            <mxPoint x="705" as="targetPoint" />
          </mxGeometry>
        </mxCell>
        <mxCell id="mQuxqRwpFB3yFmqCJQ7G-70" value="" style="endArrow=none;html=1;exitX=0.5;exitY=0;exitDx=0;exitDy=0;entryX=0.001;entryY=0.013;entryDx=0;entryDy=0;entryPerimeter=0;" edge="1" source="mQuxqRwpFB3yFmqCJQ7G-66" target="mQuxqRwpFB3yFmqCJQ7G-67" parent="mz15I2nbmNn2ASxsVBPX-1">
          <mxGeometry width="50" height="50" relative="1" as="geometry">
            <mxPoint x="705" y="20" as="sourcePoint" />
            <mxPoint x="635" y="210" as="targetPoint" />
          </mxGeometry>
        </mxCell>
        <mxCell id="mQuxqRwpFB3yFmqCJQ7G-71" value="" style="endArrow=none;html=1;entryX=0.5;entryY=0;entryDx=0;entryDy=0;exitX=1;exitY=0.5;exitDx=0;exitDy=0;" edge="1" source="mQuxqRwpFB3yFmqCJQ7G-67" target="mQuxqRwpFB3yFmqCJQ7G-63" parent="mz15I2nbmNn2ASxsVBPX-1">
          <mxGeometry width="50" height="50" relative="1" as="geometry">
            <mxPoint x="535" y="320" as="sourcePoint" />
            <mxPoint x="585" y="270" as="targetPoint" />
          </mxGeometry>
        </mxCell>
        <mxCell id="mQuxqRwpFB3yFmqCJQ7G-73" value="N" style="text;html=1;align=center;verticalAlign=middle;resizable=0;points=[];autosize=1;" vertex="1" parent="mz15I2nbmNn2ASxsVBPX-1">
          <mxGeometry x="525" y="310" width="20" height="20" as="geometry" />
        </mxCell>
      </root>
    </mxGraphModel>
  </diagram>
</mxfile>
